<svg width="400" height="220" viewBox="0 0 400 220" fill="none" xmlns="http://www.w3.org/2000/svg">
  <rect width="400" height="220" fill="url(#gradient1)"/>
  <rect x="20" y="20" width="360" height="180" rx="12" fill="rgba(255,255,255,0.1)" stroke="rgba(255,255,255,0.2)"/>
  
  <!-- 瀏覽器窗口 -->
  <rect x="30" y="30" width="340" height="30" rx="6" fill="rgba(30, 41, 59, 0.9)"/>
  <circle cx="45" cy="45" r="4" fill="#EF4444"/>
  <circle cx="60" cy="45" r="4" fill="#F59E0B"/>
  <circle cx="75" cy="45" r="4" fill="#10B981"/>
  
  <!-- 導航欄 -->
  <rect x="30" y="70" width="340" height="40" fill="rgba(31, 41, 55, 0.9)"/>
  <rect x="50" y="82" width="60" height="16" rx="2" fill="#8B5CF6"/>
  <rect x="130" y="82" width="40" height="16" rx="2" fill="rgba(148, 163, 184, 0.3)"/>
  <rect x="190" y="82" width="50" height="16" rx="2" fill="rgba(148, 163, 184, 0.3)"/>
  <rect x="260" y="82" width="45" height="16" rx="2" fill="rgba(148, 163, 184, 0.3)"/>
  
  <!-- 主要內容 -->
  <rect x="50" y="130" width="300" height="20" rx="2" fill="rgba(249, 250, 251, 0.9)"/>
  <rect x="50" y="160" width="200" height="12" rx="2" fill="rgba(148, 163, 184, 0.6)"/>
  <rect x="50" y="180" width="180" height="12" rx="2" fill="rgba(148, 163, 184, 0.6)"/>
  
  <defs>
    <linearGradient id="gradient1" x1="0%" y1="0%" x2="100%" y2="100%">
      <stop offset="0%" style="stop-color:#1E293B;stop-opacity:1" />
      <stop offset="100%" style="stop-color:#0F172A;stop-opacity:1" />
    </linearGradient>
  </defs>
</svg>
